Coordinates
version=1
nRows=6
nColumns=63
inDegrees=yes

Units are S.I. units (second, meters, Newtons, ...)
If the header above contains a line with 'inDegrees', this indicates whether rotational values are in degrees (yes) or radians (no).

endheader
time	pelvis_tilt	pelvis_list	pelvis_rotation	pelvis_tx	pelvis_ty	pelvis_tz	hip_flexion_r	hip_adduction_r	hip_rotation_r	knee_angle_r	knee_angle_r_beta	ankle_angle_r	subtalar_angle_r	mtp_angle_r	hip_flexion_l	hip_adduction_l	hip_rotation_l	knee_angle_l	knee_angle_l_beta	ankle_angle_l	subtalar_angle_l	mtp_angle_l	L5_S1_Flex_Ext	L5_S1_Lat_Bending	L5_S1_axial_rotation	L4_L5_Flex_Ext	L4_L5_Lat_Bending	L4_L5_axial_rotation	L3_L4_Flex_Ext	L3_L4_Lat_Bending	L3_L4_axial_rotation	L2_L3_Flex_Ext	L2_L3_Lat_Bending	L2_L3_axial_rotation	L1_L2_Flex_Ext	L1_L2_Lat_Bending	L1_L2_axial_rotation	L1_T12_Flex_Ext	L1_T12_Lat_Bending	L1_T12_axial_rotation	Abs_r3	Abs_r2	Abs_r1	Abs_t1	Abs_t2	neck_flexion	neck_bending	neck_rotation	arm_flex_r	arm_add_r	arm_rot_r	elbow_flex_r	pro_sup_r	wrist_flex_r	wrist_dev_r	arm_flex_l	arm_add_l	arm_rot_l	elbow_flex_l	pro_sup_l	wrist_flex_l	wrist_dev_l
12.983333	-3.879531	-6.922486	95.438428	0.184926	1.156639	0.421537	3.111088	-3.575337	-8.248662	2.932584	0.051183	14.025938	17.215660	0.000000	4.598629	2.576958	-13.565849	4.971070	0.086762	7.283893	11.286624	0.000000	-0.273044	0.177168	1.002788	-0.507071	0.235634	1.065462	-0.448585	0.430767	1.065462	-0.312062	0.430767	0.877439	-0.253549	0.361282	0.814765	-0.156018	0.274434	0.752091	-1.950329	2.004165	5.577206	0.000000	0.000000	13.048915	4.407418	-4.232953	14.181759	-18.695055	-58.367996	150.049640	63.955799	31.352746	-1.668210	17.962252	-2.146916	162.615963	0.206801	1.728899	-35.912944	-23.742753
13.000000	-3.631306	-6.679602	95.956243	0.184035	1.157177	0.421788	2.812262	-3.318301	-8.726930	2.891054	0.050458	13.914793	17.179008	0.000000	4.412264	2.349189	-12.936390	5.034956	0.087877	7.170601	10.944897	0.000000	-0.299416	0.179042	0.681711	-0.556045	0.238125	0.724318	-0.491910	0.435322	0.724318	-0.342202	0.435322	0.596497	-0.278037	0.365102	0.553890	-0.171086	0.277335	0.511283	-2.138696	2.025354	3.791473	0.000000	0.000000	12.081530	5.171974	-3.435246	18.422706	-20.218936	-57.039119	150.805389	61.705730	36.282450	-2.794663	17.598145	-2.671964	160.671885	0.211374	1.739992	-33.179486	-23.652358
13.016667	-3.468392	-6.460769	96.350699	0.183501	1.157626	0.421964	2.560156	-3.131337	-9.113050	2.887649	0.050399	13.876259	17.142746	0.000000	4.229565	2.198664	-12.239313	5.073891	0.088556	7.073457	10.424431	0.000000	-0.327051	0.168751	0.396124	-0.607367	0.224439	0.420882	-0.537313	0.410302	0.420882	-0.373787	0.410302	0.346608	-0.303700	0.344118	0.321851	-0.186877	0.261396	0.297093	-2.336095	1.908948	2.203122	0.000000	0.000000	11.046741	5.915708	-2.749866	22.408859	-21.570582	-55.101869	151.146102	59.354746	40.746069	-3.381969	17.216726	-3.241368	158.728423	0.214918	1.749301	-30.362558	-23.550471
13.033333	-3.404780	-6.284799	96.620600	0.183350	1.157964	0.422039	2.369399	-3.030151	-9.405302	2.916777	0.050907	13.914327	17.100589	0.000000	4.066973	2.132896	-11.623000	5.090014	0.088838	6.997336	9.928151	0.000000	-0.353733	0.144015	0.151591	-0.656917	0.191539	0.161065	-0.581147	0.350157	0.161065	-0.404281	0.350157	0.132642	-0.328476	0.293675	0.123167	-0.202123	0.223079	0.113693	-2.526677	1.629122	0.843101	0.000000	0.000000	10.027436	6.579400	-2.249865	26.064319	-22.738261	-52.548223	151.159260	57.007469	44.376915	-3.305765	16.815005	-3.850736	156.831935	0.217475	1.761968	-27.650232	-23.446830
13.050000	-3.427664	-6.153491	96.760109	0.183577	1.158190	0.421998	2.242817	-3.004204	-9.578451	2.980850	0.052026	14.021758	17.046886	0.000000	3.927574	2.140622	-11.078307	5.091485	0.088863	6.945379	9.402107	0.000000	-0.378715	0.107304	-0.046204	-0.703311	0.142715	-0.049092	-0.622190	0.260900	-0.049092	-0.432833	0.260900	-0.040428	-0.351674	0.218815	-0.037541	-0.216398	0.166215	-0.034653	-2.705120	1.213850	-0.256972	0.000000	0.000000	9.155639	7.236662	-1.811580	29.320933	-23.755177	-49.477100	150.946923	54.780478	47.037133	-2.562496	16.411424	-4.488716	155.118006	0.218316	1.775366	-24.984517	-23.353484
13.066667	-3.532775	-6.066324	96.782171	0.184124	1.158295	0.421836	2.174189	-3.054079	-9.660104	3.075463	0.053677	14.194420	16.992189	0.000000	3.811198	2.216664	-10.685492	5.084010	0.088733	6.926767	8.960169	0.000000	-0.401315	0.060083	-0.198672	-0.745282	0.079911	-0.211089	-0.659320	0.146086	-0.211089	-0.458663	0.146086	-0.173838	-0.372661	0.122522	-0.161421	-0.229311	0.093069	-0.149004	-2.866552	0.679674	-1.104956	0.000000	0.000000	8.505419	7.809996	-1.468149	32.151663	-24.627679	-45.980425	150.608945	52.558168	48.629013	-0.993611	16.004773	-5.142175	153.586005	0.217748	1.793107	-22.403453	-23.278130
